<svg width="123" height="36" viewBox="0 0 123 36" fill="none" xmlns="http://www.w3.org/2000/svg">
<path fill-rule="evenodd" clip-rule="evenodd" d="M18 0C27.9411 0 36 8.05887 36 18C36 27.9411 27.9411 36 18 36C8.05887 36 0 27.9411 0 18V4.8C0 2.14903 2.14903 1.35294e-07 4.8 0H18ZM18 7.2C16.6082 7.2 15.48 8.32824 15.48 9.72V26.28C15.48 27.6718 16.6082 28.8 18 28.8C19.3918 28.8 20.52 27.6718 20.52 26.28V9.72C20.52 8.32824 19.3918 7.2 18 7.2Z" fill="#2B7FFF"/>
<path d="M52.7061 31.5C50.9151 31.5 49.2964 31.0873 47.8498 30.2618C46.4262 29.4134 45.2897 28.2669 44.4401 26.8223C43.6135 25.3777 43.2002 23.7497 43.2002 21.9382C43.2002 20.1268 43.5791 18.5102 44.3368 17.0885C45.1174 15.6439 46.1737 14.5089 47.5054 13.6834C48.8371 12.835 50.3411 12.4108 52.0173 12.4108C53.372 12.4108 54.6233 12.6975 55.7714 13.2707C56.9195 13.821 57.8838 14.5777 58.6645 15.5408V6.25414C58.6645 5.72675 58.8252 5.30255 59.1467 4.98153C59.4911 4.66051 59.9159 4.5 60.421 4.5C60.9491 4.5 61.3739 4.66051 61.6954 4.98153C62.0168 5.30255 62.1775 5.72675 62.1775 6.25414V21.9382C62.1775 23.7497 61.7528 25.3777 60.9032 26.8223C60.0766 28.2669 58.9515 29.4134 57.5279 30.2618C56.1043 31.0873 54.4971 31.5 52.7061 31.5ZM52.7061 28.4045C53.8771 28.4045 54.9218 28.1293 55.8403 27.579C56.7587 27.0057 57.482 26.2261 58.0101 25.2401C58.5382 24.2541 58.8023 23.1535 58.8023 21.9382C58.8023 20.7 58.5382 19.5994 58.0101 18.6363C57.482 17.6732 56.7587 16.9166 55.8403 16.3662C54.9218 15.793 53.8771 15.5064 52.7061 15.5064C51.558 15.5064 50.5133 15.793 49.5719 16.3662C48.6535 16.9166 47.9187 17.6732 47.3676 18.6363C46.8395 19.5994 46.5755 20.7 46.5755 21.9382C46.5755 23.1535 46.8395 24.2541 47.3676 25.2401C47.9187 26.2261 48.6535 27.0057 49.5719 27.579C50.5133 28.1293 51.558 28.4045 52.7061 28.4045Z" fill="#2B7FFF"/>
<path d="M72.7899 31.5C71.1137 31.5 69.6098 31.0873 68.278 30.2618C66.9463 29.4134 65.8901 28.2783 65.1094 26.8567C64.3517 25.4121 63.9728 23.7841 63.9728 21.9726C63.9728 20.1611 64.3861 18.5331 65.2127 17.0885C66.0623 15.6439 67.1989 14.5089 68.6224 13.6834C70.069 12.835 71.6877 12.4108 73.4787 12.4108C75.2697 12.4108 76.877 12.835 78.3005 13.6834C79.7241 14.5089 80.8492 15.6439 81.6758 17.0885C82.5254 18.5331 82.9502 20.1611 82.9502 21.9726H81.6069C81.6069 23.7841 81.2166 25.4121 80.4359 26.8567C79.6782 28.2783 78.6335 29.4134 77.3017 30.2618C75.97 31.0873 74.466 31.5 72.7899 31.5ZM73.4787 28.4045C74.6497 28.4045 75.6945 28.1293 76.6129 27.579C77.5313 27.0057 78.2546 26.2376 78.7827 25.2745C79.3108 24.2885 79.5749 23.1879 79.5749 21.9726C79.5749 20.7344 79.3108 19.6338 78.7827 18.6707C78.2546 17.6847 77.5313 16.9166 76.6129 16.3662C75.6945 15.793 74.6497 15.5064 73.4787 15.5064C72.3307 15.5064 71.2859 15.793 70.3445 16.3662C69.4261 16.9166 68.6913 17.6847 68.1403 18.6707C67.6121 19.6338 67.3481 20.7344 67.3481 21.9726C67.3481 23.1879 67.6121 24.2885 68.1403 25.2745C68.6913 26.2376 69.4261 27.0057 70.3445 27.579C71.2859 28.1293 72.3307 28.4045 73.4787 28.4045ZM81.1936 31.3968C80.6885 31.3968 80.2637 31.2363 79.9193 30.9153C79.5978 30.5713 79.4371 30.1471 79.4371 29.6427V24.3803L80.0915 20.7344L82.9502 21.9726V29.6427C82.9502 30.1471 82.778 30.5713 82.4335 30.9153C82.1121 31.2363 81.6988 31.3968 81.1936 31.3968Z" fill="#2B7FFF"/>
<path d="M93.2759 31.5C91.4161 31.5 89.7744 31.0987 88.3508 30.2962C86.9272 29.4707 85.8021 28.3471 84.9755 26.9255C84.1719 25.4809 83.77 23.8299 83.77 21.9726C83.77 20.0924 84.1719 18.4414 84.9755 17.0197C85.8021 15.5752 86.9272 14.4516 88.3508 13.649C89.7744 12.8236 91.4161 12.4108 93.2759 12.4108C95.1128 12.4108 96.7431 12.8236 98.1666 13.649C99.5902 14.4516 100.704 15.5752 101.507 17.0197C102.334 18.4414 102.747 20.0924 102.747 21.9726C102.747 23.8299 102.346 25.4809 101.542 26.9255C100.738 28.3471 99.6247 29.4707 98.2011 30.2962C96.7775 31.0987 95.1358 31.5 93.2759 31.5ZM93.2759 28.4045C94.4699 28.4045 95.5261 28.1293 96.4446 27.579C97.363 27.0287 98.0748 26.272 98.5799 25.3089C99.1081 24.3459 99.3721 23.2338 99.3721 21.9726C99.3721 20.7115 99.1081 19.5994 98.5799 18.6363C98.0748 17.6503 97.363 16.8822 96.4446 16.3318C95.5261 15.7815 94.4699 15.5064 93.2759 15.5064C92.082 15.5064 91.0257 15.7815 90.1073 16.3318C89.1889 16.8822 88.4656 17.6503 87.9375 18.6363C87.4094 19.5994 87.1453 20.7115 87.1453 21.9726C87.1453 23.2338 87.4094 24.3459 87.9375 25.3089C88.4656 26.272 89.1889 27.0287 90.1073 27.579C91.0257 28.1293 92.082 28.4045 93.2759 28.4045Z" fill="#FFD230"/>
<path d="M120.444 31.3968C119.939 31.3968 119.514 31.2363 119.169 30.9153C118.848 30.5713 118.687 30.1471 118.687 29.6427V21.1815C118.687 19.8745 118.446 18.8083 117.964 17.9828C117.482 17.1573 116.827 16.5497 116.001 16.1599C115.197 15.7471 114.267 15.5408 113.211 15.5408C112.247 15.5408 111.374 15.7357 110.593 16.1255C109.813 16.5153 109.193 17.0427 108.734 17.7076C108.274 18.3497 108.045 19.0949 108.045 19.9433H105.875C105.875 18.4987 106.219 17.2146 106.908 16.0911C107.62 14.9446 108.584 14.0389 109.801 13.3739C111.018 12.7089 112.384 12.3764 113.9 12.3764C115.484 12.3764 116.896 12.7204 118.136 13.4083C119.399 14.0732 120.386 15.0592 121.098 16.3662C121.833 17.6732 122.2 19.2783 122.2 21.1815V29.6427C122.2 30.1471 122.028 30.5713 121.684 30.9153C121.362 31.2363 120.949 31.3968 120.444 31.3968ZM106.288 31.3968C105.783 31.3968 105.358 31.2363 105.014 30.9153C104.692 30.5713 104.532 30.1471 104.532 29.6427V14.3025C104.532 13.7752 104.692 13.351 105.014 13.0299C105.358 12.7089 105.783 12.5484 106.288 12.5484C106.816 12.5484 107.241 12.7089 107.562 13.0299C107.884 13.351 108.045 13.7752 108.045 14.3025V29.6427C108.045 30.1471 107.884 30.5713 107.562 30.9153C107.241 31.2363 106.816 31.3968 106.288 31.3968Z" fill="#2B7FFF"/>
</svg>
